<svg width="834" height="704" viewBox="0 0 834 704" fill="none" xmlns="http://www.w3.org/2000/svg">
<g clip-path="url(#clip0_15_3)">
<path d="M570.501 0.0069144C572.754 0.0861675 576.027 0.776737 580.578 2.96785C588.072 6.56924 599.288 14.3454 615.554 30.6807C622.504 30.2099 629.948 30.0157 637.873 30.0157C658.065 30.0157 675.477 31.263 689.587 35.2325C703.544 22.636 713.008 16.5639 719.345 13.7784C723.748 11.8391 726.732 11.4545 728.701 11.6456C729.688 11.7389 730.414 11.9786 730.913 12.2257C731.169 12.347 731.537 12.7155 731.679 12.8204C733.761 13.55 735.14 14.8489 736.291 16.8302C737.488 18.8837 738.288 21.4826 738.816 24.3682C739.871 30.1397 739.871 37.3355 739.417 44.3028C738.969 51.2864 738.056 58.1185 737.262 63.2003C736.859 65.7384 736.495 67.8477 736.223 69.3204C736.087 70.0549 735.973 70.6354 735.894 71.0294C735.86 71.2252 735.826 71.3793 735.809 71.4815C735.798 71.5309 735.792 71.5702 735.787 71.5958L735.77 71.6964C735.759 71.7497 735.741 71.8311 735.718 71.9337C735.678 72.1409 735.628 72.4445 735.548 72.8311C735.395 73.6004 735.174 74.7012 734.884 76.0206C734.306 78.6571 733.466 82.1859 732.422 85.7305C731.838 87.6983 731.185 89.6893 730.476 91.547C730.504 92.6305 730.527 93.7306 730.527 94.8516C730.527 107.155 731.946 116.113 728.224 132.866C729.387 137.528 733.733 137.367 738.482 140.013C755.184 149.311 775.887 168.171 797.383 205.765L797.44 205.846C797.531 205.985 797.667 206.186 797.837 206.449C798.178 206.974 798.66 207.75 799.267 208.774C800.464 210.82 802.138 213.874 804.061 217.977C807.925 226.184 812.821 238.585 817.093 255.522C825.632 289.393 836.587 339.896 831.713 414.913C826.845 489.931 828.015 504.656 808.697 553.607C789.377 602.545 723.152 659.64 723.123 659.665V531.462L709.127 288.544C709.127 288.645 709.121 288.316 708.667 287.398C708.259 286.568 707.618 285.53 706.767 284.327C705.065 281.929 702.688 279.129 700.089 276.419C697.502 273.71 694.767 271.17 692.384 269.273C691.187 268.321 690.132 267.57 689.27 267.051C688.839 266.792 688.493 266.61 688.226 266.493C688.027 266.405 687.914 266.37 687.885 266.36C685.797 265.981 682.603 265.686 677.566 265.521C677.543 265.523 677.52 265.528 677.497 265.53C677.225 265.568 676.822 265.619 676.306 265.685C675.268 265.815 673.753 265.996 671.824 266.211C667.96 266.642 662.451 267.197 655.814 267.705C642.561 268.721 624.763 269.554 606.693 268.801C588.685 268.05 570.105 265.713 555.443 260.237C540.797 254.767 529.227 245.803 527.11 231.446C521.529 193.569 535.413 161.359 543.125 146.98C544.612 144.212 548.209 138.434 552.118 133.301C552.215 133.17 552.318 133.043 552.417 132.912C547.923 121.211 547.893 106.758 547.893 94.8516C547.893 83.5958 549.264 74.2272 551.941 66.4464C551.687 65.2464 551.476 64.0113 551.299 62.7921C550.845 59.6383 550.615 56.5238 550.503 54.2022C550.445 53.0416 550.416 52.0744 550.403 51.3985C550.396 51.0605 550.393 50.7942 550.391 50.6124C550.389 50.524 550.389 50.4543 550.389 50.4054V50.3165L550.387 50.2159C550.385 50.1274 550.383 49.9925 550.38 49.8204C550.373 49.4754 550.365 48.9667 550.361 48.3233C550.356 47.0343 550.368 45.1883 550.438 42.9718C550.573 38.5383 550.936 32.5964 551.845 26.5802C552.75 20.5781 554.206 14.4362 556.563 9.6368C557.74 7.23826 559.172 5.11919 560.926 3.51082C562.622 1.95846 564.688 0.832229 567.172 0.463946C567.353 0.391727 567.591 0.308031 567.897 0.233477C568.515 0.0842964 569.378 -0.0303774 570.501 0.0069144Z" fill="url(#paint0_linear_15_3)"/>
<path d="M676.443 199C712.443 200.5 726.5 225 733.943 257.5L736.443 641.458C736.443 674.894 709.328 702 675.885 702H61C27.5565 702 0.443392 674.894 0.443359 641.458V259.547C0.443359 226.106 27.5565 199 61 199H676.443Z" fill="url(#paint1_linear_15_3)"/>
<path d="M145.78 412.5H193.165V507H145.78V412.5ZM193.165 459.615L215.305 412.5H262.42L238.795 459.615L268.765 507H221.11L193.165 459.615ZM310.588 412.5H350.008L391.858 507H340.828L326.653 475.68H296.953L284.803 507H274.948L310.588 412.5ZM322.873 467.445L310.588 440.04L299.923 467.445H322.873ZM401.956 420.465H366.451V412.5H484.846V420.465H449.206V507H401.956V420.465ZM491.454 412.5H589.599V420.465H538.974V455.43H563.814V463.53H538.974V498.9H589.599V507H491.454V412.5Z" fill="white"/>
</g>
<defs>
<linearGradient id="paint0_linear_15_3" x1="532.999" y1="681" x2="789" y2="685.5" gradientUnits="userSpaceOnUse">
<stop offset="0.115385" stop-color="#A500FF"/>
<stop offset="1" stop-color="#6900FB"/>
</linearGradient>
<linearGradient id="paint1_linear_15_3" x1="-1.27816e-07" y1="608" x2="736" y2="608" gradientUnits="userSpaceOnUse">
<stop stop-color="#A500FF"/>
<stop offset="1" stop-color="#009DFF"/>
</linearGradient>
<clipPath id="clip0_15_3">
<rect width="834" height="704" fill="white"/>
</clipPath>
</defs>
</svg>
