<svg width="86" height="86" viewBox="0 0 86 86" fill="none" xmlns="http://www.w3.org/2000/svg">
<path d="M66 0C77.0457 0 86 8.95431 86 20V66C86 77.0457 77.0457 86 66 86H20C8.95431 86 3.06042e-07 77.0457 0 66V20C0 8.95431 8.95431 3.06022e-07 20 0H66ZM27.8604 26.7803C23.1405 26.7803 19.5004 28.26 16.9404 31.2197C14.4205 34.1797 13.1602 38.1799 13.1602 43.2197C13.1602 48.2597 14.4204 52.2803 16.9404 55.2803C19.5004 58.24 23.1405 59.7197 27.8604 59.7197C30.9402 59.7197 33.5804 59.0201 35.7803 57.6201C37.9802 56.2201 39.5997 54.0195 40.6396 51.0195L33.7402 48.0195C33.3002 49.2595 32.6398 50.3603 31.7598 51.3203C30.9198 52.2401 29.62 52.7001 27.8604 52.7002C26.0604 52.7002 24.7003 52.1199 23.7803 50.96C22.8603 49.76 22.4004 48.1797 22.4004 46.2197V40.3398C22.4004 38.3399 22.8603 36.7596 23.7803 35.5996C24.7003 34.3999 26.0605 33.7998 27.8604 33.7998C29.4199 33.7999 30.6396 34.2199 31.5195 35.0596C32.3995 35.8996 32.9798 36.9201 33.2598 38.1201L40.46 35C39.54 32.4 37.9998 30.3804 35.8398 28.9404C33.7199 27.5005 31.0602 26.7803 27.8604 26.7803ZM42.5361 27.5L52.8564 59H63.416L73.7363 27.5H65.3359L61.5557 40.2197L58.6162 51.6201H58.1357L55.1963 40.2197L51.2959 27.5H42.5361Z" fill="#FEFEFE"/>
</svg>
