<svg width="88" height="87" viewBox="0 0 88 87" fill="none" xmlns="http://www.w3.org/2000/svg">
<path d="M43.5261 0C25.3603 0 20.0475 0.01874 19.0148 0.104409C15.2868 0.414289 12.9671 1.00125 10.4398 2.25951C8.49222 3.22663 6.9562 4.34769 5.44027 5.91918C2.67945 8.78507 1.00624 12.3109 0.400531 16.5019C0.106045 18.5366 0.0203761 18.9515 0.00297461 29.3442C-0.00371826 32.8085 0.00297461 37.3677 0.00297461 43.4829C0.00297461 61.634 0.0230532 66.9415 0.110061 67.9722C0.41124 71.5997 0.980134 73.882 2.18485 76.3784C4.4872 81.1571 8.88442 84.7445 14.0647 86.0831C15.8584 86.5449 17.8395 86.7992 20.3828 86.9197C21.4603 86.9665 32.4433 87 43.433 87C54.4227 87 65.4124 86.9866 66.4632 86.9331C69.4081 86.7945 71.1181 86.565 73.0088 86.0764C75.5774 85.4177 77.9713 84.2062 80.0232 82.5265C82.0751 80.8469 83.7356 78.7395 84.8887 76.3516C86.07 73.9154 86.669 71.5462 86.9401 68.108C86.999 67.3584 87.0237 55.407 87.0237 43.4716C87.0237 31.5341 86.9969 19.6048 86.938 18.8552C86.6636 15.3615 86.0646 13.0123 84.8452 10.5292C83.8446 8.4966 82.7336 6.97866 81.1206 5.42658C78.2427 2.67715 74.7222 1.00393 70.5265 0.398895C68.4938 0.105078 68.0889 0.0180708 57.6882 0H43.5261Z" fill="url(#paint0_radial_120_53)"/>
<path d="M43.5261 0C25.3603 0 20.0475 0.01874 19.0148 0.104409C15.2868 0.414289 12.9671 1.00125 10.4398 2.25951C8.49222 3.22663 6.9562 4.34769 5.44027 5.91918C2.67945 8.78507 1.00624 12.3109 0.400531 16.5019C0.106045 18.5366 0.0203761 18.9515 0.00297461 29.3442C-0.00371826 32.8085 0.00297461 37.3677 0.00297461 43.4829C0.00297461 61.634 0.0230532 66.9415 0.110061 67.9722C0.41124 71.5997 0.980134 73.882 2.18485 76.3784C4.4872 81.1571 8.88442 84.7445 14.0647 86.0831C15.8584 86.5449 17.8395 86.7992 20.3828 86.9197C21.4603 86.9665 32.4433 87 43.433 87C54.4227 87 65.4124 86.9866 66.4632 86.9331C69.4081 86.7945 71.1181 86.565 73.0088 86.0764C75.5774 85.4177 77.9713 84.2062 80.0232 82.5265C82.0751 80.8469 83.7356 78.7395 84.8887 76.3516C86.07 73.9154 86.669 71.5462 86.9401 68.108C86.999 67.3584 87.0237 55.407 87.0237 43.4716C87.0237 31.5341 86.9969 19.6048 86.938 18.8552C86.6636 15.3615 86.0646 13.0123 84.8452 10.5292C83.8446 8.4966 82.7336 6.97866 81.1206 5.42658C78.2427 2.67715 74.7222 1.00393 70.5265 0.398895C68.4938 0.105078 68.0889 0.0180708 57.6882 0H43.5261Z" fill="url(#paint1_radial_120_53)"/>
<path d="M43.501 11.3779C52.2245 11.3779 53.316 11.4163 56.7422 11.5723C60.162 11.7289 62.498 12.27 64.5459 13.0645C66.6606 13.8843 68.4475 14.9818 70.2344 16.7686C72.0214 18.5542 73.1192 20.347 73.9424 22.46C74.7321 24.5026 75.2739 26.8369 75.4346 30.2568C75.5885 33.6836 75.6289 34.7791 75.6289 43.5039C75.6289 52.2281 75.5885 53.3206 75.4346 56.7471C75.2739 60.1658 74.7321 62.5016 73.9424 64.5449C73.1192 66.657 72.0212 68.4489 70.2344 70.2344C68.4494 72.0213 66.66 73.1218 64.5479 73.9424C62.5038 74.7368 60.1662 75.2789 56.7461 75.4355C53.3197 75.5915 52.2278 75.6289 43.5029 75.6289C34.7791 75.6289 33.6843 75.5915 30.2578 75.4355C26.8384 75.2789 24.503 74.7368 22.459 73.9424C20.3474 73.1218 18.5545 72.0214 16.7695 70.2344C14.9835 68.4489 13.8856 66.6567 13.0645 64.5439C12.2707 62.5014 11.7296 60.1669 11.5723 56.7471C11.417 53.3204 11.3779 52.2283 11.3779 43.5039C11.3779 34.7791 11.4187 33.6826 11.5713 30.2559C11.7253 26.8374 12.2671 24.5022 13.0635 22.459C13.8867 20.3468 14.9845 18.5542 16.7715 16.7686C18.557 14.9825 20.3492 13.885 22.4619 13.0645C24.5046 12.27 26.8397 11.7289 30.2598 11.5723C33.6856 11.4164 34.781 11.3779 43.501 11.3779ZM40.624 17.1592C34.6366 17.1659 33.488 17.206 30.5244 17.3398C27.3926 17.4837 25.692 18.0056 24.5596 18.4473C23.0604 19.0309 21.9887 19.7272 20.8643 20.8516C19.74 21.9758 19.0432 23.0469 18.4609 24.5459C18.0212 25.6783 17.4977 27.3785 17.3545 30.5107C17.2006 33.8972 17.1699 34.9095 17.1699 43.4883C17.1699 52.0668 17.2006 53.0843 17.3545 56.4707C17.4971 59.603 18.0212 61.3035 18.4609 62.4346C19.0445 63.9342 19.74 65.0027 20.8643 66.127C21.9887 67.2514 23.0604 67.947 24.5596 68.5293C25.6927 68.969 27.3925 69.4922 30.5244 69.6367C33.911 69.7907 34.9277 69.8242 43.5059 69.8242C52.0833 69.8242 53.1008 69.7906 56.4873 69.6367C59.6195 69.4935 61.3211 68.972 62.4521 68.5303C63.952 67.948 65.0192 67.2514 66.1436 66.127C67.2679 65.0032 67.9656 63.9357 68.5479 62.4365C68.9875 61.3054 69.5111 59.6056 69.6543 56.4736C69.8082 53.087 69.8418 52.0697 69.8418 43.4961C69.8418 34.9225 69.8082 33.9051 69.6543 30.5186C69.5117 27.3866 68.9875 25.6868 68.5479 24.5557C67.9642 23.0565 67.268 21.9848 66.1436 20.8604C65.02 19.7362 63.9512 19.0402 62.4521 18.458C61.3197 18.0183 59.6195 17.4948 56.4873 17.3516C53.1002 17.1976 52.0833 17.167 43.5059 17.167C42.4337 17.167 41.4793 17.1657 40.624 17.167V17.1592ZM43.5049 27.0059C52.6159 27.0059 60.002 34.3929 60.002 43.5039C60.0017 52.6147 52.6167 59.998 43.5059 59.998C34.395 59.998 27.008 52.6147 27.0078 43.5039C27.0078 34.3933 34.3944 27.0064 43.5049 27.0059ZM43.5059 32.7949C37.5914 32.795 32.7979 37.5895 32.7979 43.5039C32.7981 49.4175 37.5916 54.2119 43.5059 54.2119C49.4195 54.2119 54.2146 49.4175 54.2148 43.5039C54.2148 37.5894 49.4197 32.7949 43.5059 32.7949ZM60.6543 22.5C62.7826 22.5 64.5098 24.2271 64.5098 26.3555C64.5099 27.1178 64.2837 27.8631 63.8604 28.4971C63.4369 29.1312 62.8352 29.626 62.1309 29.918C61.4265 30.2099 60.6512 30.2862 59.9033 30.1377C59.1554 29.9891 58.468 29.6221 57.9287 29.083C57.3895 28.544 57.0219 27.8571 56.873 27.1094C56.7242 26.3617 56.8012 25.5862 57.0928 24.8818C57.3845 24.1773 57.8787 23.575 58.5127 23.1514C59.1466 22.7277 59.8918 22.501 60.6543 22.501V22.5Z" fill="white"/>
<defs>
<radialGradient id="paint0_radial_120_53" cx="0" cy="0" r="1" gradientUnits="userSpaceOnUse" gradientTransform="translate(23.1158 93.7008) rotate(-90) scale(86.2234 80.2164)">
<stop stop-color="#FFDD55"/>
<stop offset="0.1" stop-color="#FFDD55"/>
<stop offset="0.5" stop-color="#FF543E"/>
<stop offset="1" stop-color="#C837AB"/>
</radialGradient>
<radialGradient id="paint1_radial_120_53" cx="0" cy="0" r="1" gradientTransform="matrix(7.56703 37.7925 -155.821 31.2 -14.5769 6.26733)" gradientUnits="userSpaceOnUse">
<stop stop-color="#3771C8"/>
<stop offset="0.128" stop-color="#3771C8"/>
<stop offset="1" stop-color="#6600FF" stop-opacity="0"/>
</radialGradient>
</defs>
</svg>
