<svg width="82" height="87" viewBox="0 0 82 87" fill="none" xmlns="http://www.w3.org/2000/svg">
<g clip-path="url(#clip0_107_405)">
<path d="M75.9468 0H6.0532C4.44779 0 2.90813 0.676633 1.77294 1.88105C0.637746 3.08546 0 4.71899 0 6.42229V80.5777C0 82.281 0.637746 83.9145 1.77294 85.119C2.90813 86.3234 4.44779 87 6.0532 87H75.9468C77.5522 87 79.0919 86.3234 80.2271 85.119C81.3623 83.9145 82 82.281 82 80.5777V6.42229C82 4.71899 81.3623 3.08546 80.2271 1.88105C79.0919 0.676633 77.5522 0 75.9468 0ZM24.4406 74.1131H12.1121V32.5646H24.4406V74.1131ZM18.2678 26.8069C16.8693 26.7985 15.5045 26.3508 14.3457 25.5203C13.1868 24.6898 12.2858 23.5137 11.7563 22.1404C11.2269 20.7671 11.0927 19.2581 11.3708 17.804C11.6488 16.3499 12.3267 15.0158 13.3187 13.97C14.3107 12.9242 15.5725 12.2136 16.9448 11.9279C18.3172 11.6422 19.7385 11.7943 21.0294 12.3648C22.3204 12.9354 23.4231 13.8989 24.1984 15.1337C24.9738 16.3685 25.3869 17.8194 25.3858 19.3031C25.399 20.2965 25.2236 21.2825 24.87 22.2024C24.5163 23.1223 23.9918 23.9573 23.3275 24.6575C22.6633 25.3577 21.873 25.9089 21.0037 26.2782C20.1344 26.6474 19.204 26.8272 18.2678 26.8069ZM69.8822 74.1494H57.5595V51.4508C57.5595 44.7567 54.8774 42.6904 51.4151 42.6904C47.7593 42.6904 44.1718 45.6146 44.1718 51.62V74.1494H31.8433V32.5948H43.6992V38.3525H43.8586C45.0488 35.7969 49.2171 31.4288 55.5778 31.4288C62.4567 31.4288 69.8879 35.7606 69.8879 48.4481L69.8822 74.1494Z" fill="#FEFEFE"/>
</g>
<defs>
<clipPath id="clip0_107_405">
<rect width="82" height="87" fill="white"/>
</clipPath>
</defs>
</svg>
