<svg width="677" height="210" viewBox="0 0 677 210" fill="none" xmlns="http://www.w3.org/2000/svg">
<rect width="210" height="677" transform="matrix(0 1 -1 0 677 0)" fill="#FEFEFE"/>
<path d="M157.66 52.1588C157.486 52.158 157.31 52.1572 157.13 52.1564C156.76 52.1553 156.39 52.1552 156.02 52.156C155.459 52.1566 154.898 52.1522 154.337 52.1475C153.976 52.1471 153.615 52.1469 153.255 52.1471C153.089 52.1454 152.923 52.1437 152.752 52.1419C151.559 52.1506 150.664 52.3524 149.576 52.7743C148.443 53.9151 148.319 55.4482 148.02 56.8763C147.939 57.2532 147.858 57.63 147.775 58.0066C147.699 58.3481 147.627 58.6901 147.555 59.0321C147.218 60.2774 147.218 60.2774 146.307 61.2515C146.159 61.3024 146.01 61.3533 145.856 61.4058C145.691 61.4651 145.525 61.5245 145.354 61.5857C145.18 61.6429 145.005 61.7001 144.824 61.759C144.646 61.8211 144.468 61.8832 144.284 61.9472C143.932 62.0694 143.578 62.1899 143.224 62.3084C142.823 62.4436 142.427 62.5889 142.033 62.7364C140.775 63.2105 140.775 63.2105 139.441 63.0292C138.961 62.7726 138.516 62.5135 138.064 62.2251C137.793 62.057 137.523 61.889 137.251 61.7211C137.108 61.6316 136.965 61.5421 136.817 61.4498C135.991 60.9384 135.155 60.4403 134.318 59.941C134.074 59.7944 134.074 59.7944 133.826 59.6448C133.597 59.5085 133.597 59.5085 133.365 59.3693C133.23 59.2884 133.095 59.2075 132.956 59.1242C132.165 58.6724 131.58 58.6736 130.628 58.7408C129.59 59.2494 128.777 59.8795 127.94 60.5937C127.816 60.6984 127.691 60.8032 127.563 60.9112C127.303 61.1313 127.043 61.352 126.784 61.5731C126.387 61.9108 125.988 62.2465 125.589 62.582C125.335 62.797 125.081 63.0121 124.828 63.2274C124.649 63.3771 124.649 63.3771 124.468 63.5299C123.709 64.1799 123.223 64.6726 123.034 65.5747C123.19 66.5149 123.755 67.1892 124.349 67.9819C124.469 68.1468 124.588 68.3115 124.711 68.4813C125.246 69.2171 125.792 69.9459 126.357 70.6651C126.44 70.7727 126.523 70.8802 126.608 70.991C126.826 71.2713 127.049 71.5485 127.273 71.8253C127.984 73.2069 126.858 74.8231 126.263 76.1277C126.167 76.3483 126.07 76.5689 125.97 76.7963C125.827 77.1128 125.827 77.1128 125.681 77.4357C125.594 77.6276 125.508 77.8195 125.419 78.0171C125.083 78.5659 124.882 78.7755 124.239 79.0643C123.685 79.1701 123.162 79.2491 122.601 79.3097C122.365 79.3383 122.365 79.3383 122.124 79.3674C121.622 79.4277 121.12 79.4851 120.618 79.5421C120.116 79.6001 119.615 79.6587 119.114 79.7188C118.803 79.756 118.491 79.7919 118.179 79.8265C116.935 79.9734 116.14 80.1284 115.261 80.9055C114.463 81.8435 114.508 82.681 114.501 83.8111C114.499 83.964 114.498 84.1169 114.497 84.2748C114.495 84.5986 114.493 84.9224 114.492 85.2454C114.49 85.7377 114.483 86.23 114.476 86.7222C114.475 87.0379 114.474 87.3527 114.473 87.6684C114.47 87.8139 114.468 87.9603 114.465 88.1099C114.47 89.2695 114.719 90.1706 115.668 91.0546C116.546 91.488 117.394 91.6123 118.387 91.7546C118.782 91.8175 119.176 91.8797 119.57 91.9418C119.952 91.9999 120.333 92.058 120.714 92.116C121.303 92.206 121.89 92.2992 122.477 92.3957C122.713 92.4325 122.949 92.4693 123.193 92.5069C124.118 92.7645 124.52 93.1815 124.991 93.8889C125.123 94.1301 125.123 94.1301 125.258 94.377C125.546 94.8988 125.739 95.2496 126.222 95.6584C127.725 95.6331 128.995 95.0517 130.339 94.5283C131.75 93.987 133.155 93.4481 134.605 92.9861C134.809 92.9215 135.011 92.8569 135.221 92.7898C135.603 92.6696 135.986 92.5519 136.371 92.4382C136.835 92.291 137.258 92.152 137.678 91.9296C138.092 91.1159 137.75 90.5165 137.458 89.6922C137.343 89.1346 137.283 88.5785 137.237 88.0143C137.22 87.7967 137.22 87.7967 137.201 87.576C137.055 83.9444 138.264 80.5201 140.763 77.5727C140.888 77.4181 141.014 77.2636 141.144 77.1044C143.743 74.1169 147.603 72.4733 151.779 71.6061C151.916 71.5735 152.054 71.5408 152.196 71.5072C156.588 70.6781 161.339 71.9198 165.107 73.7737C169.374 76.0786 172.188 79.5488 173.369 83.7261C173.611 84.8349 173.63 85.9233 173.631 87.0469C173.634 87.2211 173.636 87.3952 173.639 87.5743C173.641 88.6202 173.527 89.5778 173.247 90.5967C173.122 91.1077 173.116 91.5959 173.149 92.116C174.039 92.4014 174.93 92.6827 175.829 92.9501C178.052 93.6174 180.194 94.3754 182.317 95.2487C183.336 95.6576 184.109 95.9634 185.267 95.8449C186.092 94.5717 186.626 93.3393 187.029 91.9296C187.187 91.8969 187.344 91.8633 187.507 91.8298C189.178 91.4782 190.846 91.1192 192.509 90.7414C192.749 90.6891 192.989 90.6375 193.235 90.5836C194.583 90.2745 195.527 89.9915 196.502 89.1329C196.836 88.5679 196.758 87.9815 196.759 87.3617C196.761 87.1515 196.761 87.1515 196.762 86.9373C196.763 86.6405 196.763 86.3436 196.763 86.046C196.764 85.597 196.767 85.1481 196.772 84.6992C196.789 80.8847 196.789 80.8847 195.732 79.8101C193.877 78.7337 190.899 78.8965 188.751 78.7511C188.485 78.73 188.22 78.7089 187.946 78.687C187.587 78.6613 187.587 78.6613 187.22 78.635C186.448 78.4761 186.193 78.2845 185.707 77.7591C185.216 77.0193 184.83 76.2396 184.426 75.4634C184.313 75.2554 184.199 75.0474 184.082 74.833C183.976 74.6303 183.871 74.4275 183.761 74.2187C183.664 74.0349 183.567 73.8513 183.467 73.662C183.163 72.7279 183.364 72.0465 183.842 71.18C183.984 70.974 184.127 70.7681 184.273 70.5559C184.349 70.444 184.426 70.3322 184.504 70.217C184.747 69.8631 184.993 69.5111 185.239 69.1589C185.402 68.9213 185.565 68.6837 185.728 68.4459C186.551 67.2478 186.551 67.2478 187.402 66.0643C187.802 65.4735 187.845 65.1939 187.69 64.5208C185.802 62.3568 182.778 59.4847 179.979 58.1814C179.054 58.0753 178.584 58.1128 177.763 58.4946C177.088 58.945 176.427 59.4054 175.779 59.8828C174.772 60.6106 173.759 61.3306 172.722 62.027C172.497 62.1794 172.272 62.3318 172.042 62.4888C171.319 62.8792 170.913 62.9755 170.065 63.0292C169.338 62.877 169.338 62.877 168.602 62.6118C168.467 62.5669 168.334 62.5221 168.195 62.4758C167.914 62.381 167.633 62.2848 167.353 62.1875C166.925 62.0384 166.494 61.8935 166.063 61.7491C164.652 61.323 164.652 61.323 163.455 60.6053C163.303 60.2198 163.303 60.2198 163.195 59.7699C163.149 59.6002 163.105 59.4305 163.059 59.2557C162.989 58.9835 162.989 58.9835 162.918 58.7058C162.869 58.5212 162.82 58.3367 162.77 58.1464C162.553 57.3164 162.344 56.4869 162.173 55.649C161.704 53.373 161.704 53.373 160.591 52.5877C159.636 52.1664 158.715 52.1577 157.66 52.1588Z" fill="#165484"/>
<path d="M118.773 113.082C118.268 113.59 118.274 114.089 118.172 114.901C118.143 115.125 118.143 115.125 118.112 115.353C118.07 115.672 118.029 115.991 117.989 116.311C117.883 117.143 117.766 117.972 117.648 118.801C117.613 119.046 117.613 119.046 117.577 119.295C117.057 122.86 116.094 127.256 113.8 129.552C113.309 129.973 112.811 130.377 112.311 130.78C111.175 131.761 110.311 132.985 109.876 134.695C109.771 135.708 109.782 136.139 110.199 137.005C110.81 137.783 111.328 137.767 112.145 137.777C112.355 137.78 112.564 137.783 112.78 137.786C113.007 137.787 113.234 137.79 113.468 137.791C113.701 137.793 113.935 137.795 114.175 137.797C114.67 137.8 115.165 137.803 115.66 137.804C116.29 137.807 116.921 137.815 117.552 137.824C118.157 137.832 118.761 137.833 119.366 137.835C119.704 137.841 119.704 137.841 120.048 137.848C121.516 137.843 122.437 137.628 123.618 136.433C124.666 134.877 125.27 133.001 125.92 131.13C126.046 130.773 126.172 130.416 126.298 130.059C129.487 120.993 129.487 120.993 128.821 118.494C128.011 116.605 126.558 115.703 125.029 115.11C124.859 115.049 124.69 114.986 124.515 114.923C124.337 114.856 124.16 114.788 123.976 114.72C123.614 114.583 123.252 114.448 122.889 114.315C122.393 114.13 121.9 113.937 121.407 113.739C121.12 113.627 120.833 113.515 120.546 113.403C120.415 113.35 120.283 113.296 120.148 113.241C119.268 112.91 119.268 112.91 118.773 113.082Z" fill="#165484"/>
<path d="M154.502 69.8249C160.953 69.7885 167.2 71.6822 172.9 75.4668C172.999 75.5326 173.094 75.5962 173.19 75.66C175.431 77.1414 177.539 78.806 179.536 80.7502C179.793 81.0007 180.049 81.25 180.309 81.496C181.429 82.5525 182.503 83.6418 183.528 84.8382C183.848 85.2135 184.167 85.5872 184.504 85.9413C185.435 86.916 185.436 86.916 187.751 89.8092C188.726 91.0268 189.682 92.273 190.731 93.3958C191.041 93.7212 191.332 94.0434 191.622 94.3975C192.203 95.149 192.799 95.8441 193.454 96.4983C193.952 96.9905 194.443 97.4885 194.921 98.0111C196.107 99.3088 197.309 100.522 198.621 101.62C198.711 101.695 198.798 101.768 198.885 101.841C205.939 107.861 214.135 110.503 222.624 110.587C223.1 110.591 223.577 110.595 224.053 110.603C224.28 110.607 224.28 110.607 224.502 110.611H224.933C225.068 110.613 225.2 110.616 225.331 110.618C225.449 110.62 225.564 110.621 225.679 110.621C226.069 110.716 226.208 110.889 226.45 111.273C226.508 111.742 226.508 111.742 226.45 112.236C226.138 112.946 226.138 112.946 225.04 113.748C224.91 113.839 224.784 113.927 224.659 114.016C221.467 116.272 218.016 117.74 214.396 118.503C214.192 118.546 214.192 118.546 213.991 118.588C210.125 119.432 206.116 119.434 202.223 118.84C202.094 118.82 201.969 118.8 201.844 118.781C198.105 118.232 194.426 117.161 190.796 115.946C190.657 115.899 190.523 115.854 190.388 115.809C189.848 115.628 189.308 115.446 188.768 115.264C187.544 114.851 186.32 114.436 185.092 114.041C184.878 113.973 184.664 113.905 184.451 113.836C184.251 113.768 184.055 113.703 183.861 113.638C182.625 113.246 180.847 112.62 179.672 113.463C179.385 113.757 179.385 113.757 179.353 114.232C179.358 114.404 179.364 114.571 179.37 114.738C179.895 117.803 179.895 117.803 181.076 120.648C181.579 121.931 182.084 123.214 182.54 124.524C182.611 124.729 182.611 124.729 182.68 124.928C183.412 126.983 183.679 129.114 183.672 131.35C183.667 131.716 183.667 131.716 183.662 132.075C183.658 133.475 183.769 134.916 183.283 136.214C182.828 136.971 182.327 137.402 181.568 137.551C181.383 137.552 181.205 137.552 181.027 137.553C180.712 137.557 180.398 137.56 180.083 137.558C179.859 137.556 179.635 137.556 179.41 137.556C178.941 137.558 178.471 137.559 178.001 137.556C177.393 137.552 176.784 137.549 176.175 137.553C175.699 137.557 175.222 137.558 174.747 137.557C174.519 137.557 174.292 137.556 174.064 137.555C173.843 137.557 173.622 137.558 173.402 137.56C173.193 137.557 172.99 137.555 172.788 137.553C172.185 137.551 171.902 137.562 171.423 137.102C171.058 136.509 171.02 136.076 171.009 135.336C171.289 134.298 171.289 134.298 172.567 132.833C173.048 132.314 173.315 132.088 173.423 131.305C172.403 128.383 172.403 128.383 170.562 126.011C169.38 124.43 168.177 122.87 167.262 121.03C166.961 120.381 166.923 120.177 166.337 119.935C166.374 124.359 166.398 128.86 165.337 133.127C165.29 133.309 165.244 133.486 165.199 133.663C164.995 134.465 164.79 135.219 164.413 135.923C163.831 136.818 163.222 137.382 162.27 137.528C162.092 137.529 161.92 137.53 161.747 137.531C161.443 137.535 161.138 137.538 160.835 137.538C160.618 137.537 160.401 137.537 160.184 137.538C159.729 137.54 159.275 137.542 158.821 137.54C158.232 137.538 157.643 137.537 157.055 137.543C156.594 137.547 156.133 137.549 155.673 137.549C155.453 137.548 155.233 137.548 155.013 137.548C154.799 137.551 154.586 137.553 154.372 137.555C154.072 137.553 154.072 137.553 153.777 137.549C152.97 137.549 152.589 137.392 152.01 136.683C151.895 136.144 151.895 136.144 151.934 135.108C152.188 133.294 153.451 132.138 154.59 131.113C155.108 130.653 155.545 130.204 155.966 129.607C156.327 127.071 156.327 127.071 155.691 124.501C155.602 124.076 155.514 123.649 155.425 123.223C155.369 122.948 155.313 122.671 155.257 122.396C155.052 121.432 154.917 120.483 154.837 119.492C154.825 119.327 154.825 119.327 154.813 119.166C154 119.17 153.186 119.172 152.373 119.175C152.038 119.176 151.703 119.176 151.367 119.177C149.566 119.186 147.767 119.224 145.97 119.034C145.8 119.014 145.635 118.993 145.469 118.973C144.889 118.903 144.308 118.829 143.728 118.75C143.438 118.711 143.438 118.711 143.153 118.672C142.594 118.597 142.034 118.521 141.474 118.445C141.35 118.428 141.229 118.412 141.108 118.396C141.264 118.973 141.265 118.973 141.288 119.554C141.289 119.798 141.29 120.034 141.291 120.27C141.293 120.676 141.294 121.083 141.294 121.489V121.921C141.293 124.322 141.243 126.697 141.003 129.083C140.978 129.325 140.978 129.325 140.954 129.561C140.734 131.725 140.603 134.18 139.513 135.985C138.488 137.194 137.724 137.563 136.293 137.587C136.091 137.584 135.896 137.583 135.701 137.581C135.174 137.583 134.648 137.586 134.122 137.582C133.574 137.576 133.026 137.573 132.477 137.579C132.047 137.583 131.617 137.585 131.187 137.584C130.978 137.583 130.774 137.582 130.571 137.581C129.688 137.589 128.665 137.799 127.981 136.989C127.611 136.292 127.611 136.292 127.716 134.951C127.969 134.013 128.261 133.438 128.895 132.842C129.694 132.152 130.425 131.644 130.831 130.523C130.943 127.444 129.91 123.934 128.807 121.204C127.671 118.552 126.298 117.104 123.989 116.157C123.493 115.96 122.999 115.758 122.506 115.552C122.402 115.509 122.301 115.467 122.201 115.426C115.267 112.547 109.248 107.804 103.519 102.259C102.447 101.221 101.368 100.197 100.271 99.2017C100.132 99.0757 100.132 99.0758 99.9963 98.9531C99.0544 98.0953 98.0882 97.3626 97.0418 96.7182C96.9111 96.6397 96.7839 96.5629 96.6571 96.4868C94.8567 95.3796 93.0848 95.0034 91.0797 95.0263C90.9708 95.028 90.8649 95.0296 90.7593 95.0304C88.9447 95.0394 87.1525 95.158 85.3477 95.3919C84.5727 95.4998 83.7988 95.6077 83.021 95.6805C80.7707 95.7795 78.2515 95.7075 76.4801 93.7196C75.4699 92.2935 75.2736 90.7398 75.322 88.8819C75.4915 87.1188 76.1433 85.9307 77.1803 84.7417C77.3129 84.5994 77.442 84.4612 77.5707 84.323C81.2579 80.3549 85.6796 76.8862 90.5549 75.7927C96.1402 74.8921 100.531 77.895 104.837 81.9225C106.77 83.7334 108.811 85.8489 111.117 86.8621C111.254 86.9152 111.387 86.9667 111.52 87.0174C112.008 87.2162 112.485 87.3666 112.989 87.4909C118.571 88.4648 122.923 85.8922 127.288 81.8681C129.664 79.6695 132.076 77.5692 134.712 75.8685C134.821 75.7976 134.928 75.7288 135.035 75.66C137.693 73.9154 140.451 72.5344 143.357 71.557C143.493 71.5123 143.625 71.4686 143.756 71.4252C147.171 70.2955 150.578 69.8423 154.105 69.8266C154.305 69.826 154.305 69.8254 154.502 69.8249ZM155.6 73.7787C146.497 73.7788 139.117 81.101 139.117 90.133C139.117 99.1657 146.497 106.488 155.6 106.488C164.703 106.488 172.082 99.1657 172.083 90.133C172.083 81.1009 164.703 73.7787 155.6 73.7787Z" fill="#165484"/>
<path d="M251.624 139.12C250.069 139.12 249.292 138.343 249.292 136.788V80.38C249.292 78.8547 250.069 78.092 251.624 78.092C253.149 78.092 253.912 78.8547 253.912 80.38V116.944L276.264 97.76C277.378 96.7627 278.449 96.836 279.476 97.98C280.473 99.124 280.4 100.209 279.256 101.236L263.064 115.184L280.664 135.16C281.69 136.304 281.617 137.389 280.444 138.416C279.329 139.413 278.258 139.34 277.232 138.196L259.5 118.22L253.912 123.016V136.788C253.912 138.343 253.149 139.12 251.624 139.12ZM293.114 120.112V123.324C293.114 127.46 293.936 130.364 295.578 132.036C297.25 133.679 300.184 134.5 304.378 134.5H311.594C315.29 134.5 317.974 134.031 319.646 133.092C321.348 132.124 322.36 130.467 322.682 128.12C322.8 127.387 323.034 126.829 323.386 126.448C323.768 126.067 324.34 125.876 325.102 125.876C325.865 125.876 326.437 126.096 326.818 126.536C327.229 126.947 327.39 127.533 327.302 128.296C326.921 131.992 325.44 134.72 322.858 136.48C320.277 138.24 316.522 139.12 311.594 139.12H304.378C298.893 139.12 294.874 137.859 292.322 135.336C289.77 132.784 288.494 128.78 288.494 123.324V113.38C288.494 107.836 289.77 103.803 292.322 101.28C294.874 98.728 298.893 97.4813 304.378 97.54H311.594C317.08 97.54 321.084 98.816 323.606 101.368C326.158 103.891 327.434 107.895 327.434 113.38V117.78C327.434 119.335 326.672 120.112 325.146 120.112H293.114ZM304.378 102.16C300.184 102.101 297.25 102.908 295.578 104.58C293.936 106.223 293.114 109.156 293.114 113.38V115.492H322.814V113.38C322.814 109.185 321.993 106.267 320.35 104.624C318.708 102.981 315.789 102.16 311.594 102.16H304.378ZM353.178 156.72C349.335 156.72 346.49 155.796 344.642 153.948C342.823 152.1 341.914 149.225 341.914 145.324C341.914 143.799 342.676 143.036 344.202 143.036C345.756 143.036 346.534 143.799 346.534 145.324C346.534 147.964 347.003 149.753 347.942 150.692C348.88 151.631 350.626 152.1 353.178 152.1H368.402C370.983 152.1 372.743 151.631 373.682 150.692C374.62 149.753 375.09 147.964 375.09 145.324V133.224C373.418 135.424 371.32 136.964 368.798 137.844C366.275 138.724 363.327 139.164 359.954 139.164H357.49C352.092 139.164 348.147 137.917 345.654 135.424C343.16 132.931 341.914 129.015 341.914 123.676V99.784C341.914 98.2293 342.676 97.452 344.202 97.452C345.756 97.452 346.534 98.2293 346.534 99.784V123.676C346.534 127.753 347.326 130.584 348.91 132.168C350.523 133.752 353.383 134.544 357.49 134.544H359.954C365.087 134.544 368.886 133.649 371.35 131.86C373.843 130.041 375.09 127.313 375.09 123.676V99.784C375.09 98.2293 375.852 97.452 377.378 97.452C378.932 97.452 379.71 98.2293 379.71 99.784V145.324C379.71 149.225 378.786 152.1 376.938 153.948C375.119 155.796 372.274 156.72 368.402 156.72H353.178ZM405.267 139.032C401.659 139.032 398.902 138.269 396.995 136.744C395.088 135.189 393.944 132.828 393.563 129.66C393.475 128.897 393.636 128.311 394.047 127.9C394.458 127.46 395.059 127.24 395.851 127.24C396.584 127.24 397.127 127.431 397.479 127.812C397.86 128.193 398.11 128.765 398.227 129.528C398.491 131.347 399.151 132.623 400.207 133.356C401.292 134.06 402.979 134.412 405.267 134.412H419.699C422.427 134.412 424.304 133.899 425.331 132.872C426.358 131.845 426.871 129.968 426.871 127.24C426.871 124.483 426.358 122.591 425.331 121.564C424.304 120.537 422.427 120.024 419.699 120.024H405.443C401.63 120.024 398.784 119.115 396.907 117.296C395.059 115.448 394.135 112.617 394.135 108.804C394.135 104.903 395.059 102.043 396.907 100.224C398.755 98.376 401.6 97.452 405.443 97.452H419.259C425.888 97.452 429.57 100.385 430.303 106.252C430.42 107.015 430.259 107.616 429.819 108.056C429.408 108.467 428.822 108.672 428.059 108.672C427.326 108.672 426.768 108.481 426.387 108.1C426.035 107.719 425.786 107.161 425.639 106.428C425.434 104.785 424.832 103.656 423.835 103.04C422.867 102.395 421.342 102.072 419.259 102.072H405.443C402.891 102.072 401.131 102.541 400.163 103.48C399.224 104.419 398.755 106.193 398.755 108.804C398.755 111.297 399.239 113.028 400.207 113.996C401.175 114.935 402.92 115.404 405.443 115.404H419.699C423.747 115.404 426.724 116.372 428.631 118.308C430.538 120.215 431.491 123.192 431.491 127.24C431.491 131.259 430.538 134.236 428.631 136.172C426.724 138.079 423.747 139.032 419.699 139.032H405.267ZM457.679 139.12C453.103 139.12 449.744 138.064 447.603 135.952C445.491 133.811 444.435 130.452 444.435 125.876C444.435 121.3 445.506 117.941 447.647 115.8C449.788 113.659 453.132 112.588 457.679 112.588H477.699C477.64 108.716 476.76 106.017 475.059 104.492C473.387 102.937 470.527 102.16 466.479 102.16H461.375C457.65 102.16 454.922 102.556 453.191 103.348C451.46 104.14 450.39 105.489 449.979 107.396C449.774 108.129 449.495 108.672 449.143 109.024C448.82 109.347 448.292 109.508 447.559 109.508C446.796 109.508 446.195 109.303 445.755 108.892C445.344 108.452 445.198 107.865 445.315 107.132C445.696 103.788 447.207 101.353 449.847 99.828C452.516 98.3027 456.359 97.54 461.375 97.54H466.479C471.964 97.54 475.968 98.816 478.491 101.368C481.043 103.891 482.319 107.895 482.319 113.38V136.788C482.319 138.343 481.556 139.12 480.031 139.12C478.476 139.12 477.699 138.343 477.699 136.788V132.432C474.883 136.891 469.852 139.12 462.607 139.12H457.679ZM457.679 134.5H462.607C465.452 134.5 467.946 134.192 470.087 133.576C472.258 132.931 474.003 131.904 475.323 130.496C476.643 129.088 477.435 127.211 477.699 124.864V117.208H457.679C454.423 117.208 452.164 117.839 450.903 119.1C449.671 120.332 449.055 122.591 449.055 125.876C449.055 129.132 449.671 131.391 450.903 132.652C452.164 133.884 454.423 134.5 457.679 134.5ZM532.931 97.54C534.486 97.54 535.263 98.3027 535.263 99.828V136.788C535.263 138.343 534.486 139.12 532.931 139.12C531.406 139.12 530.643 138.343 530.643 136.788V132.608C527.856 136.949 522.811 139.12 515.507 139.12H513.043C507.558 139.12 503.539 137.844 500.987 135.292C498.464 132.74 497.203 128.721 497.203 123.236V99.828C497.203 98.3027 497.966 97.54 499.491 97.54C501.046 97.54 501.823 98.3027 501.823 99.828V123.236C501.823 127.431 502.644 130.364 504.287 132.036C505.959 133.679 508.878 134.5 513.043 134.5H515.507C520.054 134.5 523.632 133.767 526.243 132.3C528.854 130.833 530.32 128.589 530.643 125.568V99.828C530.643 98.3027 531.406 97.54 532.931 97.54ZM554.038 139.12C552.483 139.12 551.706 138.343 551.706 136.788V99.828C551.706 98.3027 552.483 97.54 554.038 97.54C555.563 97.54 556.326 98.3027 556.326 99.828V106.604C557.851 103.671 560.051 101.427 562.926 99.872C565.83 98.3173 569.262 97.54 573.222 97.54C574.776 97.54 575.554 98.3027 575.554 99.828C575.554 101.383 574.776 102.16 573.222 102.16C568 102.16 563.952 103.348 561.078 105.724C558.203 108.071 556.619 111.429 556.326 115.8V136.788C556.326 138.343 555.563 139.12 554.038 139.12Z" fill="#165484"/>
</svg>
